<svg 
 xmlns="http://www.w3.org/2000/svg"
 xmlns:xlink="http://www.w3.org/1999/xlink"
 width="16px" height="22px">
<path fill-rule="evenodd"  fill="rgb(40, 185, 84)"
 d="M7.797,0.048 C3.548,0.048 0.091,3.505 0.091,7.754 C0.091,13.026 6.987,20.767 7.281,21.094 C7.557,21.401 8.038,21.400 8.314,21.094 C8.607,20.767 15.503,13.026 15.503,7.754 C15.503,3.505 12.046,0.048 7.797,0.048 ZM7.797,11.630 C5.659,11.630 3.920,9.891 3.920,7.754 C3.920,5.616 5.659,3.877 7.797,3.877 C9.935,3.877 11.674,5.616 11.674,7.754 C11.674,9.891 9.935,11.630 7.797,11.630 Z"/>
</svg>