<svg 
 xmlns="http://www.w3.org/2000/svg"
 xmlns:xlink="http://www.w3.org/1999/xlink"
 width="40px" height="24px">
<path fill-rule="evenodd"  fill="rgb(0, 150, 76)"
 d="M39.334,7.950 L37.731,16.036 C37.514,17.122 36.560,17.977 35.452,17.977 L21.029,17.977 C19.921,17.977 18.967,17.117 18.750,16.031 L15.591,2.230 C15.389,1.395 15.902,0.537 16.736,0.335 C17.573,0.131 18.411,0.609 18.614,1.443 L19.499,5.024 L37.055,5.024 C37.751,5.024 38.411,5.410 38.852,5.948 C39.294,6.486 39.471,7.268 39.334,7.950 ZM11.511,14.019 L7.988,14.019 L7.988,17.530 C7.988,18.357 7.318,19.027 6.491,19.027 C5.664,19.027 4.994,18.357 4.994,17.530 L4.994,14.019 L1.501,14.019 C0.674,14.019 0.004,13.349 0.004,12.522 C0.004,11.695 0.674,11.025 1.501,11.025 L4.994,11.025 L4.994,7.520 C4.994,6.693 5.664,6.023 6.491,6.023 C7.318,6.023 7.988,6.693 7.988,7.520 L7.988,11.025 L11.511,11.025 C12.338,11.025 13.008,11.695 13.008,12.522 C13.008,13.349 12.338,14.019 11.511,14.019 ZM23.494,19.441 C24.667,19.441 25.619,20.392 25.619,21.565 C25.619,22.739 24.667,23.690 23.494,23.690 C22.320,23.690 21.369,22.739 21.369,21.565 C21.369,20.392 22.320,19.441 23.494,19.441 ZM33.156,19.441 C34.329,19.441 35.281,20.392 35.281,21.565 C35.281,22.739 34.329,23.690 33.156,23.690 C31.982,23.690 31.031,22.739 31.031,21.565 C31.031,20.392 31.982,19.441 33.156,19.441 Z"/>
</svg>