<svg 
 xmlns="http://www.w3.org/2000/svg"
 xmlns:xlink="http://www.w3.org/1999/xlink"
 width="36px" height="36px">
<path fill-rule="evenodd"  fill="rgb(40, 185, 84)"
 d="M35.694,11.646 L33.313,23.656 C32.991,25.269 31.574,26.540 29.929,26.540 L8.505,26.540 C6.859,26.540 5.441,25.263 5.120,23.649 L0.427,3.149 C0.126,1.909 0.888,0.635 2.128,0.335 C3.370,0.031 4.615,0.741 4.916,1.980 L6.231,7.299 L32.310,7.299 C33.343,7.299 34.323,7.873 34.979,8.672 C35.635,9.471 35.897,10.632 35.694,11.646 ZM12.165,28.714 C13.908,28.714 15.321,30.127 15.321,31.870 C15.321,33.613 13.908,35.025 12.165,35.025 C10.422,35.025 9.009,33.613 9.009,31.870 C9.009,30.127 10.422,28.714 12.165,28.714 ZM26.517,28.714 C28.261,28.714 29.674,30.127 29.674,31.870 C29.674,33.613 28.261,35.025 26.517,35.025 C24.774,35.025 23.361,33.613 23.361,31.870 C23.361,30.127 24.774,28.714 26.517,28.714 Z"/>
</svg>