<svg 
 xmlns="http://www.w3.org/2000/svg"
 xmlns:xlink="http://www.w3.org/1999/xlink"
 width="16px" height="12px">
<path fill-rule="evenodd"  fill="rgb(40, 185, 84)"
 d="M13.265,0.739 L1.807,0.739 C0.823,0.739 0.023,1.498 0.023,2.431 L0.023,10.320 C0.023,11.253 0.823,12.012 1.807,12.012 L13.265,12.012 C14.248,12.012 15.048,11.253 15.048,10.320 L15.048,2.431 C15.048,1.498 14.248,0.739 13.265,0.739 ZM13.265,10.518 L1.807,10.518 C1.662,10.518 1.535,10.426 1.535,10.320 L1.535,3.474 L6.717,7.796 C6.824,7.885 6.959,7.933 7.098,7.933 L7.973,7.933 C8.112,7.933 8.247,7.885 8.354,7.796 L13.536,3.474 L13.536,10.320 C13.536,10.426 13.409,10.518 13.265,10.518 ZM7.536,6.450 L2.495,2.232 L12.576,2.232 L7.536,6.450 Z"/>
</svg>