<svg 
 xmlns="http://www.w3.org/2000/svg"
 xmlns:xlink="http://www.w3.org/1999/xlink"
 width="16px" height="16px">
<path fill-rule="evenodd"  fill="#00b600"
 d="M15.844,12.343 C15.876,12.590 15.801,12.805 15.619,12.988 L13.478,15.115 C13.381,15.223 13.255,15.314 13.100,15.389 C12.944,15.464 12.791,15.513 12.641,15.534 C12.630,15.534 12.598,15.537 12.544,15.542 C12.491,15.548 12.421,15.550 12.335,15.550 C12.131,15.550 11.801,15.515 11.345,15.446 C10.889,15.376 10.331,15.204 9.671,14.930 C9.011,14.656 8.263,14.245 7.426,13.697 C6.588,13.149 5.698,12.397 4.753,11.441 C4.002,10.700 3.380,9.991 2.886,9.314 C2.392,8.637 1.995,8.011 1.695,7.436 C1.394,6.862 1.169,6.341 1.019,5.873 C0.869,5.406 0.767,5.003 0.713,4.665 C0.659,4.327 0.638,4.060 0.649,3.867 C0.659,3.674 0.665,3.566 0.665,3.545 C0.686,3.394 0.734,3.241 0.810,3.086 C0.885,2.929 0.976,2.803 1.083,2.707 L3.224,0.563 C3.374,0.413 3.546,0.338 3.739,0.338 C3.879,0.338 4.002,0.378 4.109,0.459 C4.217,0.539 4.308,0.639 4.383,0.757 L6.106,4.028 C6.202,4.200 6.229,4.388 6.186,4.592 C6.143,4.797 6.052,4.968 5.912,5.108 L5.124,5.898 C5.102,5.919 5.083,5.954 5.067,6.002 C5.051,6.051 5.043,6.091 5.043,6.123 C5.086,6.349 5.183,6.607 5.333,6.897 C5.462,7.155 5.660,7.469 5.928,7.839 C6.197,8.210 6.578,8.637 7.071,9.121 C7.554,9.615 7.984,9.999 8.359,10.273 C8.735,10.547 9.049,10.748 9.301,10.877 C9.553,11.006 9.746,11.084 9.880,11.111 L10.081,11.151 C10.103,11.151 10.138,11.143 10.186,11.127 C10.234,11.111 10.269,11.092 10.291,11.070 L11.208,10.136 C11.402,9.964 11.627,9.878 11.884,9.878 C12.067,9.878 12.212,9.910 12.319,9.974 L12.335,9.974 L15.442,11.812 C15.667,11.951 15.801,12.129 15.844,12.343 Z"/>
</svg>