<svg 
 xmlns="http://www.w3.org/2000/svg"
 xmlns:xlink="http://www.w3.org/1999/xlink"
 width="21px" height="21px">
<path fill-rule="evenodd"  fill="rgb(255, 255, 255)"
 d="M20.028,17.602 L15.568,13.142 C15.544,13.118 15.516,13.101 15.492,13.079 C16.369,11.748 16.881,10.155 16.881,8.441 C16.881,3.779 13.102,-0.000 8.441,-0.000 C3.779,-0.000 0.000,3.779 0.000,8.441 C0.000,13.102 3.779,16.881 8.441,16.881 C10.154,16.881 11.748,16.369 13.079,15.492 C13.101,15.516 13.118,15.544 13.141,15.568 L17.602,20.028 C18.272,20.698 19.358,20.698 20.028,20.028 C20.698,19.358 20.698,18.272 20.028,17.602 ZM8.441,13.955 C5.395,13.955 2.926,11.486 2.926,8.441 C2.926,5.395 5.395,2.926 8.441,2.926 C11.486,2.926 13.955,5.395 13.955,8.441 C13.955,11.486 11.486,13.955 8.441,13.955 Z"/>
</svg>