<svg 
 xmlns="http://www.w3.org/2000/svg"
 xmlns:xlink="http://www.w3.org/1999/xlink"
 width="26px" height="26px">
<path fill-rule="evenodd"  fill="rgb(255, 255, 255)"
 d="M23.960,15.607 L22.217,15.898 C22.041,16.479 21.802,17.044 21.517,17.589 L22.544,19.031 C22.980,19.643 22.907,20.478 22.378,21.008 L20.833,22.554 C20.542,22.844 20.158,23.005 19.749,23.005 C19.427,23.005 19.116,22.907 18.857,22.720 L17.420,21.692 C16.881,21.978 16.316,22.211 15.730,22.393 L15.434,24.136 C15.310,24.878 14.672,25.417 13.920,25.417 L11.731,25.417 C10.979,25.417 10.342,24.878 10.217,24.136 L9.927,22.393 C9.361,22.217 8.812,21.993 8.288,21.719 L6.831,22.756 C6.572,22.943 6.266,23.041 5.944,23.041 C5.534,23.041 5.151,22.881 4.860,22.590 L3.315,21.044 C2.781,20.515 2.713,19.680 3.149,19.067 L4.171,17.646 C3.880,17.106 3.642,16.541 3.460,15.960 L1.697,15.659 C0.955,15.534 0.416,14.896 0.416,14.144 L0.416,11.960 C0.416,11.208 0.955,10.570 1.697,10.445 L3.419,10.154 C3.595,9.568 3.823,9.003 4.108,8.458 L3.071,7.000 C2.635,6.388 2.708,5.553 3.237,5.023 L4.788,3.477 C5.073,3.187 5.462,3.026 5.871,3.026 C6.193,3.026 6.504,3.124 6.763,3.311 L8.190,4.339 C8.729,4.048 9.294,3.809 9.875,3.628 L10.176,1.864 C10.300,1.122 10.938,0.583 11.690,0.583 L13.873,0.583 C14.625,0.583 15.263,1.122 15.387,1.864 L15.678,3.586 C16.285,3.768 16.871,4.012 17.431,4.308 L18.872,3.280 C19.132,3.093 19.438,2.995 19.759,2.995 C20.169,2.995 20.553,3.156 20.843,3.446 L22.388,4.992 C22.922,5.522 22.990,6.357 22.554,6.969 L21.528,8.406 C21.813,8.945 22.046,9.511 22.228,10.097 L23.970,10.393 C24.712,10.518 25.251,11.156 25.241,11.908 L25.241,14.092 C25.241,14.844 24.701,15.482 23.960,15.607 ZM12.831,9.039 C10.648,9.039 8.874,10.813 8.874,12.997 C8.874,15.182 10.648,16.956 12.831,16.956 C15.014,16.956 16.788,15.182 16.788,12.997 C16.788,10.813 15.014,9.039 12.831,9.039 Z"/>
</svg>