<svg 
 xmlns="http://www.w3.org/2000/svg"
 xmlns:xlink="http://www.w3.org/1999/xlink"
 width="21px" height="21px">
<path fill-rule="evenodd"  fill="rgb(0, 150, 76)"
 d="M19.363,9.781 C18.861,9.781 18.454,9.374 18.454,8.872 L18.454,3.796 L9.100,13.149 C8.923,13.327 8.690,13.416 8.458,13.416 C8.225,13.416 7.993,13.327 7.815,13.150 C7.460,12.795 7.460,12.219 7.815,11.864 L17.169,2.511 L12.093,2.511 C11.591,2.511 11.184,2.104 11.184,1.602 C11.184,1.100 11.591,0.693 12.093,0.693 L19.363,0.693 C19.865,0.693 20.271,1.100 20.271,1.602 L20.271,8.872 C20.271,9.374 19.865,9.781 19.363,9.781 ZM10.275,6.146 L2.097,6.146 L2.097,18.868 L14.819,18.868 L14.819,10.689 C14.819,10.188 15.226,9.781 15.728,9.781 C16.230,9.781 16.637,10.188 16.637,10.689 L16.637,19.777 C16.637,20.279 16.230,20.685 15.728,20.685 L1.188,20.685 C0.686,20.685 0.279,20.279 0.279,19.777 L0.279,5.237 C0.279,4.735 0.686,4.328 1.188,4.328 L10.275,4.328 C10.777,4.328 11.184,4.735 11.184,5.237 C11.184,5.739 10.777,6.146 10.275,6.146 Z"/>
</svg>